<?xml version="1.0" standalone="no"?>
<!DOCTYPE svg PUBLIC "-//W3C//DTD SVG 20010904//EN"
 "http://www.w3.org/TR/2001/REC-SVG-20010904/DTD/svg10.dtd">
<svg version="1.0" xmlns="http://www.w3.org/2000/svg"
 width="800.000000pt" height="600.000000pt" viewBox="0 0 800.000000 600.000000"
 preserveAspectRatio="xMidYMid meet">

<g transform="translate(0.000000,600.000000) scale(0.100000,-0.100000)"
fill="#000000" stroke="none">
<path d="M1615 4303 c-11 -2 -56 -11 -100 -19 -253 -48 -508 -193 -698 -395
-255 -270 -387 -607 -387 -985 0 -383 132 -723 385 -992 271 -288 622 -434
1010 -419 321 12 590 121 832 339 694 620 607 1768 -172 2270 -147 95 -319
162 -492 192 -81 15 -326 21 -378 9z m410 -353 c614 -167 941 -874 686 -1484
-107 -256 -307 -462 -552 -567 -249 -108 -541 -104 -785 10 -118 55 -184 101
-280 193 -156 150 -246 306 -305 528 -26 98 -36 326 -19 441 64 441 389 798
810 890 117 26 330 21 445 -11z"/>
<path d="M1645 3559 c-96 -22 -126 -39 -145 -85 -32 -74 -215 -639 -275 -850
-79 -272 -77 -327 13 -370 49 -23 164 -29 221 -12 l45 14 26 104 c15 58 30
117 33 133 l7 27 185 0 184 0 10 -37 c5 -21 13 -54 16 -73 4 -19 18 -58 30
-87 32 -72 64 -88 180 -88 82 1 98 4 180 39 138 59 133 54 88 77 -97 48 -122
101 -232 504 -138 502 -174 615 -210 647 -63 56 -236 84 -356 57z m185 -551
c28 -105 50 -192 50 -194 0 -2 -57 -4 -126 -4 -115 0 -125 2 -120 18 25 89
110 370 118 391 l10 26 9 -23 c5 -13 32 -109 59 -214z"/>
<path d="M3580 3461 l-25 -7 0 -529 0 -530 24 -42 c16 -29 39 -50 66 -63 38
-19 62 -20 324 -20 346 0 349 1 366 112 5 31 2 64 -9 102 l-17 56 -214 0 -215
0 -1 408 c0 288 -4 417 -12 442 -7 19 -27 44 -46 57 -30 20 -46 23 -125 22
-50 -1 -102 -4 -116 -8z"/>
<path d="M4835 3260 c-383 -62 -569 -508 -341 -818 191 -259 560 -288 786 -62
162 162 200 420 89 616 -107 189 -326 298 -534 264z m165 -345 c34 -18 77 -64
89 -98 17 -44 13 -118 -8 -157 -56 -105 -200 -134 -287 -58 -48 42 -67 83 -67
144 0 140 148 232 273 169z"/>
<path d="M6975 3260 c-256 -41 -438 -256 -438 -515 0 -109 26 -197 84 -285
183 -274 567 -312 799 -80 162 162 200 420 89 616 -107 189 -326 298 -534 264z
m165 -345 c34 -18 77 -64 89 -98 17 -44 13 -118 -8 -157 -56 -105 -200 -134
-287 -58 -48 42 -67 83 -67 144 0 140 148 232 273 169z"/>
<path d="M5854 3235 c-222 -48 -344 -208 -344 -449 0 -205 78 -349 228 -419
58 -27 80 -32 167 -35 92 -4 135 2 189 24 17 7 19 4 13 -36 -3 -24 -14 -55
-25 -69 -58 -79 -242 -91 -390 -25 -31 14 -62 22 -69 20 -18 -7 -53 -81 -53
-112 0 -137 120 -209 350 -208 188 1 299 41 390 141 89 98 90 102 90 574 0
452 2 439 -63 496 -106 93 -313 135 -483 98z"/>
</g>
</svg>
